<svg xmlns="http://www.w3.org/2000/svg" viewBox="0 0 33.867 33.867" width="32" height="32"><g style="stroke-width:.553045"><g style="stroke-width:1.33163"><path d="M108.101 121.082c-12.448 0-22.54 10.087-22.549 22.534v-.001 17.451a5.126 5.126 0 0 0 5.127 5.114h17.43c12.45-.007 22.541-10.098 22.541-22.549 0-12.453-10.095-22.548-22.549-22.548z" style="fill:#51a2da;fill-opacity:1;fill-rule:nonzero;stroke:none;stroke-width:.46977" transform="translate(-64.247 -90.927)scale(.75096)"/><path d="M112.672 130.36c-3.517 0-6.623 2.647-7.051 6.122-.03.29-.043.501-.044.764v14.2c0 2.723-2.034 4.576-4.583 4.576a4.58 4.58 0 0 1-4.608-4.582c.043-2.792 2.273-4.56 4.88-4.637l2.664-.023v-3.754l-2.642.018c-4.743-.045-8.519 3.671-8.657 8.396 0 4.593 3.78 8.342 8.362 8.342 4.323 0 7.921-3.38 8.314-7.607l.023-5.386 3.281-.02c2.541.018 2.515-3.812-.026-3.76l-3.255.022v-5.772c.006-1.668 1.588-3.14 3.342-3.14 1.756 0 3.608.877 3.608 3.144 0 .324-.008.513-.025.631a1.88 1.88 0 1 0 3.716.53c.06-.421.064-.79.064-1.16 0-4-3.576-6.904-7.363-6.904" style="fill:#fafafa;fill-opacity:1;fill-rule:nonzero;stroke:none;stroke-width:.46977" transform="translate(-64.247 -90.927)scale(.75096)"/></g></g></svg>